<mxfile host="app.diagrams.net" modified="2022-10-10T19:42:10.031Z" agent="5.0 (Windows NT 10.0; Win64; x64) AppleWebKit/537.36 (KHTML, like Gecko) Chrome/106.0.0.0 Safari/537.36" etag="ukImr-Qvxf006JBCmISt" version="20.4.0" type="github">
  <diagram id="ObGTrQCJXTsKKXV5H-b5" name="Page-1">
    <mxGraphModel dx="950" dy="788" grid="1" gridSize="10" guides="1" tooltips="1" connect="1" arrows="1" fold="1" page="1" pageScale="1" pageWidth="850" pageHeight="1100" math="0" shadow="0">
      <root>
        <mxCell id="0" />
        <mxCell id="1" parent="0" />
        <mxCell id="mng9ckm2EKGxl6MouuhH-22" value="Document Database" style="shape=cylinder3;whiteSpace=wrap;html=1;boundedLbl=1;backgroundOutline=1;size=15;" vertex="1" parent="1">
          <mxGeometry x="140" y="315" width="350" height="170" as="geometry" />
        </mxCell>
        <mxCell id="mng9ckm2EKGxl6MouuhH-1" value="Online Retailer" style="rounded=0;whiteSpace=wrap;html=1;" vertex="1" parent="1">
          <mxGeometry x="150" y="90" width="120" height="60" as="geometry" />
        </mxCell>
        <mxCell id="mng9ckm2EKGxl6MouuhH-2" value="Manufacturer&#39;s Website" style="rounded=0;whiteSpace=wrap;html=1;" vertex="1" parent="1">
          <mxGeometry x="350" y="90" width="120" height="60" as="geometry" />
        </mxCell>
        <mxCell id="mng9ckm2EKGxl6MouuhH-5" value="" style="shape=flexArrow;endArrow=classic;html=1;rounded=0;width=54;endSize=16.33;endWidth=32;startArrow=none;" edge="1" parent="1" source="mng9ckm2EKGxl6MouuhH-6">
          <mxGeometry width="50" height="50" relative="1" as="geometry">
            <mxPoint x="209.5" y="150" as="sourcePoint" />
            <mxPoint x="209.5" y="320" as="targetPoint" />
          </mxGeometry>
        </mxCell>
        <mxCell id="mng9ckm2EKGxl6MouuhH-6" value="Scraper" style="text;html=1;strokeColor=none;fillColor=none;align=center;verticalAlign=middle;whiteSpace=wrap;rounded=0;" vertex="1" parent="1">
          <mxGeometry x="190" y="200" width="40" height="30" as="geometry" />
        </mxCell>
        <mxCell id="mng9ckm2EKGxl6MouuhH-12" value="" style="shape=flexArrow;endArrow=none;html=1;rounded=0;width=54;endSize=16.33;endWidth=32;" edge="1" parent="1" target="mng9ckm2EKGxl6MouuhH-6">
          <mxGeometry width="50" height="50" relative="1" as="geometry">
            <mxPoint x="209.5" y="150" as="sourcePoint" />
            <mxPoint x="209.5" y="320" as="targetPoint" />
          </mxGeometry>
        </mxCell>
        <mxCell id="mng9ckm2EKGxl6MouuhH-16" value="" style="shape=flexArrow;endArrow=classic;html=1;rounded=0;width=54;endSize=16.33;endWidth=32;startArrow=none;" edge="1" parent="1" source="mng9ckm2EKGxl6MouuhH-17">
          <mxGeometry width="50" height="50" relative="1" as="geometry">
            <mxPoint x="409.5" y="150" as="sourcePoint" />
            <mxPoint x="409.5" y="320" as="targetPoint" />
          </mxGeometry>
        </mxCell>
        <mxCell id="mng9ckm2EKGxl6MouuhH-17" value="Scraper" style="text;html=1;strokeColor=none;fillColor=none;align=center;verticalAlign=middle;whiteSpace=wrap;rounded=0;" vertex="1" parent="1">
          <mxGeometry x="390" y="200" width="40" height="30" as="geometry" />
        </mxCell>
        <mxCell id="mng9ckm2EKGxl6MouuhH-18" value="" style="shape=flexArrow;endArrow=none;html=1;rounded=0;width=54;endSize=16.33;endWidth=32;" edge="1" parent="1" target="mng9ckm2EKGxl6MouuhH-17">
          <mxGeometry width="50" height="50" relative="1" as="geometry">
            <mxPoint x="409.5" y="150" as="sourcePoint" />
            <mxPoint x="409.5" y="320" as="targetPoint" />
          </mxGeometry>
        </mxCell>
        <mxCell id="mng9ckm2EKGxl6MouuhH-20" value="Scraped Data&lt;span style=&quot;color: rgba(0, 0, 0, 0); font-family: monospace; font-size: 0px; text-align: start;&quot;&gt;%3CmxGraphModel%3E%3Croot%3E%3CmxCell%20id%3D%220%22%2F%3E%3CmxCell%20id%3D%221%22%20parent%3D%220%22%2F%3E%3CmxCell%20id%3D%222%22%20value%3D%22%22%20style%3D%22shape%3DflexArrow%3BendArrow%3Dclassic%3Bhtml%3D1%3Brounded%3D0%3Bwidth%3D54%3BendSize%3D16.33%3BendWidth%3D32%3BstartArrow%3Dnone%3B%22%20edge%3D%221%22%20source%3D%223%22%20parent%3D%221%22%3E%3CmxGeometry%20width%3D%2250%22%20height%3D%2250%22%20relative%3D%221%22%20as%3D%22geometry%22%3E%3CmxPoint%20x%3D%22209.5%22%20y%3D%22150%22%20as%3D%22sourcePoint%22%2F%3E%3CmxPoint%20x%3D%22209.5%22%20y%3D%22320%22%20as%3D%22targetPoint%22%2F%3E%3C%2FmxGeometry%3E%3C%2FmxCell%3E%3CmxCell%20id%3D%223%22%20value%3D%22Scraper%22%20style%3D%22text%3Bhtml%3D1%3BstrokeColor%3Dnone%3BfillColor%3Dnone%3Balign%3Dcenter%3BverticalAlign%3Dmiddle%3BwhiteSpace%3Dwrap%3Brounded%3D0%3B%22%20vertex%3D%221%22%20parent%3D%221%22%3E%3CmxGeometry%20x%3D%22190%22%20y%3D%22200%22%20width%3D%2240%22%20height%3D%2230%22%20as%3D%22geometry%22%2F%3E%3C%2FmxCell%3E%3CmxCell%20id%3D%224%22%20value%3D%22%22%20style%3D%22shape%3DflexArrow%3BendArrow%3Dnone%3Bhtml%3D1%3Brounded%3D0%3Bwidth%3D54%3BendSize%3D16.33%3BendWidth%3D32%3B%22%20edge%3D%221%22%20target%3D%223%22%20parent%3D%221%22%3E%3CmxGeometry%20width%3D%2250%22%20height%3D%2250%22%20relative%3D%221%22%20as%3D%22geometry%22%3E%3CmxPoint%20x%3D%22209.5%22%20y%3D%22150%22%20as%3D%22sourcePoint%22%2F%3E%3CmxPoint%20x%3D%22209.5%22%20y%3D%22320%22%20as%3D%22targetPoint%22%2F%3E%3C%2FmxGeometry%3E%3C%2FmxCell%3E%3C%2Froot%3E%3C%2FmxGraphModel%3E&lt;/span&gt;" style="shape=note;whiteSpace=wrap;html=1;backgroundOutline=1;darkOpacity=0.05;" vertex="1" parent="1">
          <mxGeometry x="170" y="350" width="80" height="100" as="geometry" />
        </mxCell>
        <mxCell id="mng9ckm2EKGxl6MouuhH-21" value="Scraped Data&lt;span style=&quot;color: rgba(0, 0, 0, 0); font-family: monospace; font-size: 0px; text-align: start;&quot;&gt;%3CmxGraphModel%3E%3Croot%3E%3CmxCell%20id%3D%220%22%2F%3E%3CmxCell%20id%3D%221%22%20parent%3D%220%22%2F%3E%3CmxCell%20id%3D%222%22%20value%3D%22%22%20style%3D%22shape%3DflexArrow%3BendArrow%3Dclassic%3Bhtml%3D1%3Brounded%3D0%3Bwidth%3D54%3BendSize%3D16.33%3BendWidth%3D32%3BstartArrow%3Dnone%3B%22%20edge%3D%221%22%20source%3D%223%22%20parent%3D%221%22%3E%3CmxGeometry%20width%3D%2250%22%20height%3D%2250%22%20relative%3D%221%22%20as%3D%22geometry%22%3E%3CmxPoint%20x%3D%22209.5%22%20y%3D%22150%22%20as%3D%22sourcePoint%22%2F%3E%3CmxPoint%20x%3D%22209.5%22%20y%3D%22320%22%20as%3D%22targetPoint%22%2F%3E%3C%2FmxGeometry%3E%3C%2FmxCell%3E%3CmxCell%20id%3D%223%22%20value%3D%22Scraper%22%20style%3D%22text%3Bhtml%3D1%3BstrokeColor%3Dnone%3BfillColor%3Dnone%3Balign%3Dcenter%3BverticalAlign%3Dmiddle%3BwhiteSpace%3Dwrap%3Brounded%3D0%3B%22%20vertex%3D%221%22%20parent%3D%221%22%3E%3CmxGeometry%20x%3D%22190%22%20y%3D%22200%22%20width%3D%2240%22%20height%3D%2230%22%20as%3D%22geometry%22%2F%3E%3C%2FmxCell%3E%3CmxCell%20id%3D%224%22%20value%3D%22%22%20style%3D%22shape%3DflexArrow%3BendArrow%3Dnone%3Bhtml%3D1%3Brounded%3D0%3Bwidth%3D54%3BendSize%3D16.33%3BendWidth%3D32%3B%22%20edge%3D%221%22%20target%3D%223%22%20parent%3D%221%22%3E%3CmxGeometry%20width%3D%2250%22%20height%3D%2250%22%20relative%3D%221%22%20as%3D%22geometry%22%3E%3CmxPoint%20x%3D%22209.5%22%20y%3D%22150%22%20as%3D%22sourcePoint%22%2F%3E%3CmxPoint%20x%3D%22209.5%22%20y%3D%22320%22%20as%3D%22targetPoint%22%2F%3E%3C%2FmxGeometry%3E%3C%2FmxCell%3E%3C%2Froot%3E%3C%2FmxGraphModel%3E&lt;/span&gt;" style="shape=note;whiteSpace=wrap;html=1;backgroundOutline=1;darkOpacity=0.05;" vertex="1" parent="1">
          <mxGeometry x="380" y="350" width="80" height="100" as="geometry" />
        </mxCell>
        <mxCell id="mng9ckm2EKGxl6MouuhH-23" value="" style="shape=flexArrow;endArrow=classic;html=1;rounded=0;endWidth=30;endSize=10.33;width=30;" edge="1" parent="1">
          <mxGeometry width="50" height="50" relative="1" as="geometry">
            <mxPoint x="490" y="420" as="sourcePoint" />
            <mxPoint x="660" y="420" as="targetPoint" />
          </mxGeometry>
        </mxCell>
        <mxCell id="mng9ckm2EKGxl6MouuhH-24" value="Data Pipeline" style="edgeLabel;html=1;align=center;verticalAlign=middle;resizable=0;points=[];" vertex="1" connectable="0" parent="mng9ckm2EKGxl6MouuhH-23">
          <mxGeometry x="-0.2769" y="11" relative="1" as="geometry">
            <mxPoint y="11" as="offset" />
          </mxGeometry>
        </mxCell>
        <mxCell id="mng9ckm2EKGxl6MouuhH-27" style="edgeStyle=orthogonalEdgeStyle;rounded=0;orthogonalLoop=1;jettySize=auto;html=1;" edge="1" parent="1" source="mng9ckm2EKGxl6MouuhH-25" target="mng9ckm2EKGxl6MouuhH-26">
          <mxGeometry relative="1" as="geometry" />
        </mxCell>
        <mxCell id="mng9ckm2EKGxl6MouuhH-25" value="Relational Database" style="shape=cylinder3;whiteSpace=wrap;html=1;boundedLbl=1;backgroundOutline=1;size=15;" vertex="1" parent="1">
          <mxGeometry x="660" y="350" width="110" height="120" as="geometry" />
        </mxCell>
        <mxCell id="mng9ckm2EKGxl6MouuhH-26" value="Web App" style="shape=cube;whiteSpace=wrap;html=1;boundedLbl=1;backgroundOutline=1;darkOpacity=0.05;darkOpacity2=0.1;" vertex="1" parent="1">
          <mxGeometry x="860" y="370" width="120" height="80" as="geometry" />
        </mxCell>
      </root>
    </mxGraphModel>
  </diagram>
</mxfile>
